<svg width="320" height="250" viewBox="30 18 260 210" fill="none" xmlns="http://www.w3.org/2000/svg">
  <defs>
    <radialGradient id="trophyHalo" cx="0" cy="0" r="1" gradientUnits="userSpaceOnUse" gradientTransform="translate(160 114) rotate(90) scale(92)">
      <stop stop-color="#FFF7E8"/>
      <stop offset="1" stop-color="#FFF7E8" stop-opacity="0"/>
    </radialGradient>
    <linearGradient id="trophyGold" x1="132" y1="68" x2="204" y2="160" gradientUnits="userSpaceOnUse">
      <stop stop-color="#FFD66B"/>
      <stop offset="1" stop-color="#F2A600"/>
    </linearGradient>
    <linearGradient id="trophyBase" x1="101" y1="156" x2="221" y2="184" gradientUnits="userSpaceOnUse">
      <stop stop-color="#FFFFFF"/>
      <stop offset="1" stop-color="#FFF5DE"/>
    </linearGradient>
    <filter id="trophyShadow" x="83" y="55" width="170" height="164" filterUnits="userSpaceOnUse" color-interpolation-filters="sRGB">
      <feDropShadow dx="0" dy="18" stdDeviation="12" flood-color="#F5B227" flood-opacity="0.18"/>
    </filter>
  </defs>
  <g fill="#FFDCA0" opacity="0.75">
    <circle cx="60" cy="82" r="2"/><circle cx="74" cy="82" r="2"/><circle cx="88" cy="82" r="2"/>
    <circle cx="60" cy="96" r="2"/><circle cx="74" cy="96" r="2"/><circle cx="88" cy="96" r="2"/>
    <circle cx="60" cy="110" r="2"/><circle cx="74" cy="110" r="2"/><circle cx="88" cy="110" r="2"/>
    <circle cx="248" cy="120" r="2"/><circle cx="262" cy="120" r="2"/><circle cx="276" cy="120" r="2"/>
    <circle cx="248" cy="134" r="2"/><circle cx="262" cy="134" r="2"/><circle cx="276" cy="134" r="2"/>
  </g>
  <circle cx="160" cy="114" r="92" fill="url(#trophyHalo)"/>
  <g filter="url(#trophyShadow)">
    <rect x="101" y="156" width="120" height="28" rx="14" fill="url(#trophyBase)" stroke="#F4D38B" stroke-width="2"/>
    <path d="M132 70H188V82C188 107 176 123 160 129C144 123 132 107 132 82V70Z" fill="url(#trophyGold)" stroke="#E29E00" stroke-width="3"/>
    <path d="M132 76H122C112 76 108 86 111 95C114 104 123 109 132 106" stroke="#F2B42A" stroke-width="5" stroke-linecap="round"/>
    <path d="M188 76H198C208 76 212 86 209 95C206 104 197 109 188 106" stroke="#F2B42A" stroke-width="5" stroke-linecap="round"/>
    <path d="M150 129V146" stroke="#E7A600" stroke-width="5" stroke-linecap="round"/>
    <path d="M170 129V146" stroke="#E7A600" stroke-width="5" stroke-linecap="round"/>
    <path d="M140 146H180" stroke="#E7A600" stroke-width="6" stroke-linecap="round"/>
    <path d="M146 156C146 149 152 144 160 144C168 144 174 149 174 156V162H146V156Z" fill="#F5B227" stroke="#E29E00" stroke-width="2"/>
    <path d="M160 88L165 99L177 101L168 109L170 121L160 115L150 121L152 109L143 101L155 99L160 88Z" fill="#FFF7DA" stroke="#F3C94A" stroke-width="2"/>
  </g>
</svg>
